<?xml version="1.0" standalone="no"?><!DOCTYPE svg PUBLIC "-//W3C//DTD SVG 20010904//EN" "http://www.w3.org/TR/2001/REC-SVG-20010904/DTD/svg10.dtd"><svg version="1.0" xmlns="http://www.w3.org/2000/svg"  width="48.000000pt" height="48.000000pt" viewBox="0 0 48.000000 48.000000" preserveAspectRatio="xMidYMid meet"><g transform="translate(0.000000,48.000000) scale(0.100000,-0.100000)" fill="#000000" stroke="none"><path d="M77 402 c-14 -16 -17 -43 -17 -164 0 -188 -10 -178 182 -178 188 0 178 -10 178 182 0 188 10 178 -182 178 -128 0 -147 -2 -161 -18z m308 -162 l0 -145 -145 0 -145 0 -3 134 c-1 74 0 141 2 148 4 11 37 13 148 11 l143 -3 0 -145z"/><path d="M220 345 c0 -11 11 -15 42 -15 l43 0 -78 -78 c-42 -42 -77 -83 -77 -90 0 -26 28 -9 102 65 l78 78 0 -43 c0 -31 4 -42 15 -42 12 0 15 14 15 70 l0 70 -70 0 c-56 0 -70 -3 -70 -15z"/></g></svg>